<svg width="1459" height="314" viewBox="0 0 1459 314" fill="none" xmlns="http://www.w3.org/2000/svg">
<path d="M1321.81 2.25808C1403.59 8.56627 1451.18 72.5585 1457.45 139.017C1461.1 177.63 1454.2 213.594 1433.68 246.502C1409.74 284.899 1374.07 305.854 1329.14 312.042C1302.09 315.767 1275.43 314.048 1249.59 305.308C1199.9 288.503 1169.26 253.554 1156.14 204.239C1142.73 153.793 1148.61 105.207 1178.87 61.4699C1202.98 26.621 1237.76 8.16212 1279.9 2.87372C1293.56 1.15947 1307.25 0.246572 1321.81 2.25808ZM1242.81 259.062C1256.44 267.715 1271.51 272.32 1287.47 273.977C1323.41 277.706 1356.29 270.754 1383.04 245.128C1420.62 209.12 1428.66 140.27 1401.24 93.0383C1378.57 54.0018 1335.02 34.3192 1287.2 40.8711C1247.35 46.3312 1218.8 66.6491 1202.38 102.89C1193.13 123.318 1189.71 145.12 1191.54 167.344C1194.62 204.832 1208.74 236.747 1242.81 259.062Z" fill="black"/>
<path d="M123.015 274.521C137.291 273.388 150.561 271.635 163.058 266.192C180.186 258.734 189.257 244.711 189.191 226.292C189.159 217.18 185.66 210.027 178.74 204.161C167.97 195.032 154.814 191.072 141.649 187.125C116.251 179.51 90.3119 173.762 65.175 165.209C50.5157 160.222 37.2607 153.031 25.6896 142.901C-1.13091 119.423 -4.1736 73.1277 19.0844 42.0757C36.5364 18.7754 61.2751 7.56497 89.2337 3.42913C127.293 -2.20074 164.723 2.22423 201.231 14.0583C213.765 18.1213 217.863 23.3308 217.738 33.8248C217.571 47.7852 206.223 55.9344 192.805 51.3859C165.588 42.1596 137.649 38.503 108.966 40.2173C94.1298 41.1041 79.9599 44.593 67.088 52.0607C53.2163 60.1086 45.1828 71.776 45.2978 88.2534C45.4077 103.994 54.1505 113.987 67.19 121.243C86.6961 132.099 108.758 134.926 129.927 140.494C144.685 144.376 159.397 148.366 173.779 153.437C208.961 165.841 229.25 191.625 230.714 222.502C232.687 264.089 207.054 290.223 176.039 303.118C155.091 311.828 133.097 314.417 110.577 313.742C79.4944 312.809 49.3451 307.267 20.4076 295.816C17.2922 294.583 14.1356 293.361 11.219 291.745C1.49999 286.36 -2.22116 275.639 2.17201 266.219C6.61769 256.686 15.8506 252.757 26.6811 256.649C39.304 261.186 51.75 266.126 64.9074 269.1C83.7725 273.363 102.852 275.036 123.015 274.521Z" fill="black"/>
<path d="M905.852 20.7074C912.391 29.6758 912.334 38.2447 905.957 46.3017C899.687 54.2227 891.661 53.5812 882.755 50.6065C851.593 40.1984 819.643 36.9103 787.05 42.1179C774.217 44.1682 762.327 48.9168 752.25 57.2471C732.074 73.9251 733.608 103.815 755.177 118.457C768.851 127.74 784.653 131.364 800.354 135.186C823.169 140.741 846.116 145.842 868.102 154.215C904.503 168.078 923.178 192.459 923.485 226.162C923.798 260.649 904.134 288.307 869.415 302.726C849.92 310.822 829.558 313.887 808.606 313.742C774.989 313.509 742.436 307.689 711.254 295.03C708.436 293.886 705.566 292.738 702.991 291.161C694.169 285.759 690.773 274.876 694.9 265.888C698.995 256.969 708.463 252.736 718.718 256.499C735.908 262.806 753.039 269.235 771.287 271.798C798.678 275.645 826.048 277.247 852.667 267.41C865.882 262.526 875.868 254.121 879.929 240.18C885.645 220.562 879.755 206.789 861.293 197.258C844.638 188.66 826.341 184.684 808.4 179.855C790.141 174.94 771.692 170.567 754.084 163.698C725.613 152.591 701.646 136.442 697.04 103.575C691.097 61.1597 713.943 24.6861 755.697 10.4236C804.118 -6.11606 851.991 0.425664 899.247 16.3042C901.475 17.0531 903.336 18.8702 905.852 20.7074Z" fill="black"/>
<path d="M1012.53 180.995C1012.53 130.045 1012.53 79.9996 1012.5 29.9545C1012.49 24.4842 1012.53 19.06 1015.62 14.2263C1020.19 7.08009 1026.52 2.59858 1035.32 3.55127C1044.73 4.56918 1050.92 10.1888 1053.61 19.036C1054.73 22.7164 1054.95 26.7721 1054.95 30.6578C1055.03 115.674 1055.03 200.691 1055.03 285.707C1055.03 291.175 1054.69 296.591 1051.59 301.377C1046.53 309.191 1037.26 313.037 1028.69 310.962C1019.88 308.829 1013.6 301.763 1012.73 292.23C1012.23 286.845 1012.51 281.387 1012.51 275.962C1012.51 244.608 1012.52 213.255 1012.53 180.995Z" fill="black"/>
<path d="M436.743 135.11C427.141 141.111 424.937 149.892 424.551 159.658C423.056 197.573 411.014 231.61 386.11 260.863C380.996 266.87 375.475 272.467 369.362 277.508C364.207 281.758 358.855 283.067 354.082 277.594C349.457 272.29 351.014 266.836 355.797 262.343C364.667 254.009 373.18 245.389 379.839 235.168C395.543 211.068 403.993 185.093 403.944 156.011C403.91 136.284 414.521 121.287 433.338 114.05C451.302 107.141 468.151 110.648 482.411 123.968C492.959 133.821 495.803 146.533 495.778 160.196C495.685 211.283 479.622 257.138 449.239 298.268C447.622 300.457 445.669 302.405 444.083 304.613C439.625 310.825 433.62 312.684 427.615 308.068C421.589 303.436 423.331 297.424 427.751 292.146C440.678 276.705 450.945 259.598 458.801 241.227C471.056 212.569 477.26 182.696 475.003 151.401C474.104 138.947 453.77 123.783 436.743 135.11Z" fill="black"/>
<path d="M512.731 80.9161C498.049 69.151 481.179 63.9329 463.711 60.5643C456.888 59.2485 452.617 56.4937 453.305 49.5337C454.011 42.3913 459.295 40.4586 465.917 40.8426C485.423 41.9736 502.876 49.2329 518.441 60.0992C556.398 86.5981 572.7 123.08 570.485 169.097C568.873 202.583 562.623 234.73 551.01 266.035C549.543 269.99 548.125 274.025 546.079 277.694C543.204 282.845 538.956 286.629 532.657 283.299C526.703 280.152 525.088 274.782 527.759 268.593C536.28 248.849 541.895 228.322 545.921 207.248C549.796 186.963 552.23 166.42 549.714 146.086C546.499 120.105 534.306 98.0177 512.731 80.9161Z" fill="black"/>
<path d="M369.673 167.377C369.453 146.314 373.194 127.1 385.659 110.31C387.638 107.644 389.783 105.086 391.995 102.603C396.28 97.7933 401.499 95.1984 407.138 99.7934C412.895 104.485 412.25 110.129 407.612 115.644C403.536 120.489 399.694 125.417 396.873 131.243C391.728 141.868 390.328 153.01 389.936 164.549C388.734 199.904 373.653 228.811 347.396 252.35C342.105 257.094 335.479 259.205 330.387 253.474C325.314 247.763 328.057 241.639 333.737 237.033C333.973 236.842 334.228 236.671 334.45 236.467C346.89 225.033 356.588 211.804 363.167 196.18C366.996 187.085 367.28 177.429 369.673 167.377Z" fill="black"/>
<path d="M429.27 222.162C436.836 201.555 441.924 181.156 441.998 159.79C442.021 153.175 444.322 148.236 451.629 148.073C459.663 147.895 461.669 153.359 461.706 160.206C461.99 213.02 441.828 257.513 405.259 295.256C398.926 301.792 391.932 302.533 387.783 297.3C382.824 291.043 385.483 285.727 390.633 280.659C407.508 264.051 420.141 244.632 429.27 222.162Z" fill="black"/>
<path d="M360.656 98.4436C367.92 102.588 368.313 107.877 365.18 114.184C356.862 130.923 353.541 148.526 352.998 167.279C352.366 189.09 341.319 206.832 324.619 220.86C319.977 224.758 314.379 224.757 309.885 219.943C305.459 215.203 306.603 210.002 310.859 206.299C329.202 190.337 333.25 169.326 333.924 146.693C334.379 131.418 339.383 117.245 347.167 104.045C350.078 99.1084 354.028 96.4878 360.656 98.4436Z" fill="black"/>
<path d="M317.663 159.852C315.838 166.852 312.186 171.247 305.191 169.794C298.81 168.469 297.266 163.356 297.225 157.269C296.954 116.544 312.799 82.3745 340.245 52.8171C345.23 47.4486 351.326 45.2689 357.093 50.2302C363.364 55.6263 360.46 61.4123 355.453 66.635C330.612 92.5434 318.265 123.473 317.663 159.852Z" fill="black"/>
<path d="M580.497 72.1294C596.709 95.865 605.959 121.316 607.802 149.304C607.98 152.012 608.04 154.735 607.996 157.448C607.887 164.204 605.378 169.973 597.881 170.078C590.562 170.182 587.308 164.815 587.176 157.939C586.996 148.576 585.855 139.479 583.753 130.244C578.602 107.609 568.402 87.8 552.887 70.5901C544.063 60.8017 542.485 54.5278 548.28 49.7326C553.524 45.3939 560.59 47.6961 568.303 56.6191C572.461 61.4296 576.23 66.5684 580.497 72.1294Z" fill="black"/>
<path d="M518.761 252.406C512.003 269.636 504.008 285.477 494.313 300.461C489.847 307.363 483.512 309.545 478.262 305.831C471.92 301.344 472.701 295.629 476.279 289.923C490.951 266.523 502.634 241.911 508.832 214.894C510.249 208.715 513.91 203.3 521.609 204.818C528.755 206.227 530.326 211.95 529.238 218.154C527.209 229.735 523.53 240.881 518.761 252.406Z" fill="black"/>
<path d="M490.428 106.618C477.593 96.6402 463.32 95.1387 448.34 96.0365C434.858 96.8446 429.701 93.9922 429.468 86.2143C429.249 78.8913 435.802 74.3754 447.51 73.6695C471.26 72.2375 491.89 79.6856 509.632 95.1105C514.623 99.4503 518.904 104.457 514.379 111.49C510.79 117.067 505.695 117.861 500.221 114.346C496.921 112.227 494.042 109.465 490.428 106.618Z" fill="black"/>
<path d="M428.02 4.87314C436.119 4.34047 443.41 3.38998 450.688 3.48262C457.099 3.56421 461.997 6.43417 461.729 13.8848C461.487 20.6245 456.88 21.884 451.119 22.387C428.891 24.3279 407.114 28.1571 387.019 38.4988C381.104 41.5432 376.081 39.8983 373.033 34.3471C369.803 28.4626 372.341 23.8102 377.976 20.8755C393.461 12.8099 410.061 8.01847 428.02 4.87314Z" fill="black"/>
<path d="M367.486 86.2441C363.12 79.6102 365.669 74.6401 370.192 70.4262C385.373 56.2824 403.436 47.1778 423.372 41.5596C425.971 40.8271 428.811 40.6521 431.534 40.6836C437.124 40.7484 440.947 43.3681 441.56 49.1251C442.144 54.6171 439.69 58.5018 434.154 60.0278C415.452 65.1832 397.911 72.3826 383.64 86.0587C379.021 90.4855 373.39 91.2546 367.486 86.2441Z" fill="black"/>
<path d="M500.512 33.4346C498.157 32.523 496.377 32.0191 494.744 31.2204C488.648 28.2385 484.532 23.8794 487.724 16.8421C490.741 10.1905 496.363 8.9068 503.048 11.6224C514.906 16.4399 526.641 21.4651 536.984 29.1653C542.319 33.1376 546.24 37.6812 541.949 44.3554C537.445 51.3623 531.573 50.0885 525.333 46.32C517.553 41.6213 509.971 36.49 500.512 33.4346Z" fill="black"/>
<path d="M533.2 154.156C533.085 162.221 533.287 169.451 532.702 176.618C532.205 182.699 528.778 187.07 522.054 186.346C515.751 185.666 511.757 181.173 512.698 175.109C514.535 163.281 512.475 151.767 511.411 140.156C510.843 133.967 512.265 129.029 519.21 128.261C526.225 127.486 529.788 131.851 530.969 138.196C531.899 143.193 532.454 148.258 533.2 154.156Z" fill="black"/>
</svg>
