<svg width="76" height="34" viewBox="0 0 76 34" fill="none" xmlns="http://www.w3.org/2000/svg">
<path d="M0 1.02173C0 0.469441 0.447715 0.0217252 1 0.0217252H13.645C17.6298 0.0217252 21.0907 0.41278 24.0277 1.19489C26.9646 1.977 29.3936 3.09947 31.3145 4.5623C33.2514 6.01065 34.6881 7.77764 35.6248 9.86326C36.5773 11.9344 37.0536 14.2662 37.0536 16.8588C37.0536 19.321 36.5852 21.6021 35.6486 23.7022C34.7119 25.7879 33.2831 27.5983 31.3622 29.1335C29.4412 30.6543 27.0123 31.8492 24.0753 32.7182C21.1383 33.5727 17.6774 34 13.6927 34L0.998413 33.9799C0.446749 33.979 0 33.5315 0 32.9799V1.02173Z" fill="black"/>
<path d="M38.8909 1C38.8909 0.447715 39.3386 0 39.8909 0H52.3727C52.4808 0 52.5882 0.0175341 52.6907 0.0519194L57.7173 1.73808C57.9403 1.81288 58.1825 1.80669 58.4014 1.72059L62.599 0.0694101C62.7156 0.0235453 62.8397 0 62.965 0H75C75.5523 0 76 0.447715 76 1V9.85602L75.9444 16.8371V32.9565C75.9444 33.5088 75.4967 33.9565 74.9444 33.9565H69.9038H61.7755L52.5836 33.9783L39.8893 33.9581C39.3376 33.9573 38.8909 33.5098 38.8909 32.9581V1Z" fill="black"/>
</svg>
